<svg width="26" height="26" viewBox="0 0 26 26" fill="none" xmlns="http://www.w3.org/2000/svg">
<g clip-path="url(#clip0_89_3169)">
<path fill-rule="evenodd" clip-rule="evenodd" d="M22.5649 5.13571C22.4835 4.93923 22.2918 4.81112 22.0791 4.81112L17.6175 4.81112C17.4781 4.81112 17.3443 4.86651 17.2457 4.96512L13.1559 9.05494C12.9506 9.26028 12.9506 9.5932 13.1559 9.79854L15.3867 12.0294C15.5921 12.2347 15.925 12.2347 16.1303 12.0294L22.4509 5.70873C22.6013 5.55835 22.6463 5.33219 22.5649 5.13571ZM20.8097 5.86273L15.7585 10.9139L14.2713 9.42674L17.8353 5.86273L20.8097 5.86273Z" fill="black"/>
<path fill-rule="evenodd" clip-rule="evenodd" d="M22.1932 20.039C22.1118 20.2355 21.9201 20.3636 21.7074 20.3636L17.2458 20.3636C17.1063 20.3636 16.9726 20.3082 16.874 20.2096L12.4124 15.748L11.6426 16.5178C12.0171 17.9202 11.6548 19.4799 10.5534 20.5814C8.91064 22.2241 6.24726 22.2241 4.60454 20.5814C2.96182 18.9387 2.96182 16.2753 4.60454 14.6326C5.70602 13.5311 7.26577 13.1688 8.66815 13.5434L9.43796 12.7736L8.29635 11.6319C6.89397 12.0065 5.33422 11.6442 4.23274 10.5427C2.59001 8.90002 2.59001 6.23664 4.23274 4.59391C5.87546 2.95119 8.53884 2.95119 10.1816 4.59391C11.283 5.6954 11.6453 7.25514 11.2708 8.65753L22.0792 19.466C22.2296 19.6164 22.2746 19.8425 22.1932 20.039ZM20.438 19.312L10.3029 9.17688C10.1594 9.03335 10.1113 8.82002 10.1793 8.62878C10.5754 7.51579 10.3273 6.22686 9.43796 5.33752C8.20592 4.10548 6.20838 4.10547 4.97634 5.33752C3.7443 6.56956 3.7443 8.56709 4.97634 9.79914C5.86568 10.6885 7.15462 10.9366 8.2676 10.5405C8.45884 10.4725 8.67217 10.5206 8.8157 10.6641L10.5534 12.4017C10.7587 12.6071 10.7587 12.94 10.5534 13.1454L9.1875 14.5112C9.04397 14.6547 8.83064 14.7028 8.6394 14.6348C7.52642 14.2387 6.23748 14.4868 5.34814 15.3762C4.1161 16.6082 4.1161 18.6057 5.34814 19.8378C6.58018 21.0698 8.57772 21.0698 9.80976 19.8378C10.6991 18.9484 10.9472 17.6595 10.5511 16.5465C10.4831 16.3553 10.5312 16.142 10.6747 15.9984L12.0406 14.6326C12.2459 14.4272 12.5788 14.4272 12.7842 14.6326L17.4636 19.312L20.438 19.312Z" fill="black"/>
<path d="M6.4636 18.7219C5.84758 18.1058 5.84758 17.1071 6.4636 16.491C7.07962 15.875 8.07839 15.875 8.69441 16.491C9.31043 17.1071 9.31043 18.1058 8.69441 18.7219C8.07839 19.3379 7.07962 19.3379 6.4636 18.7219Z" fill="black"/>
<path d="M6.09177 8.68376C5.47575 8.06774 5.47575 7.06898 6.09177 6.45295C6.7078 5.83693 7.70656 5.83693 8.32258 6.45295C8.9386 7.06898 8.9386 8.06774 8.32258 8.68376C7.70656 9.29979 6.70779 9.29979 6.09177 8.68376Z" fill="black"/>
</g>
<defs>
<clipPath id="clip0_89_3169">
<rect width="25.2387" height="25.2387" fill="white"/>
</clipPath>
</defs>
</svg>
