<svg width="75" height="23" viewBox="0 0 75 23" fill="none" xmlns="http://www.w3.org/2000/svg">
<rect x="0.431035" y="2.15516" width="74.1379" height="18.1034" rx="9.05172" fill="white" stroke="#F1F1F1" stroke-width="0.862069"/>
<path d="M29.8196 12.2715H30.9511C30.8922 12.8137 30.737 13.2989 30.4855 13.7271C30.2341 14.1553 29.8786 14.4952 29.4189 14.7466C28.9592 14.9941 28.3857 15.1179 27.6981 15.1179C27.1953 15.1179 26.7376 15.0236 26.3251 14.835C25.9165 14.6464 25.5649 14.3793 25.2702 14.0335C24.9755 13.6839 24.7477 13.2655 24.5866 12.7783C24.4295 12.2872 24.3509 11.7411 24.3509 11.1401V10.2856C24.3509 9.68447 24.4295 9.14034 24.5866 8.65319C24.7477 8.1621 24.9775 7.74173 25.2761 7.39207C25.5786 7.04242 25.942 6.7733 26.3663 6.58472C26.7906 6.39615 27.2679 6.30186 27.7983 6.30186C28.4466 6.30186 28.9946 6.42365 29.4425 6.66723C29.8903 6.91081 30.238 7.24868 30.4855 7.68083C30.737 8.10906 30.8922 8.60604 30.9511 9.17177H29.8196C29.7646 8.77105 29.6625 8.42729 29.5132 8.14049C29.3639 7.84977 29.1518 7.62583 28.8767 7.46868C28.6017 7.31153 28.2423 7.23296 27.7983 7.23296C27.4172 7.23296 27.0813 7.30564 26.7906 7.451C26.5038 7.59637 26.2622 7.80262 26.0658 8.06977C25.8733 8.33693 25.7279 8.65711 25.6297 9.03034C25.5315 9.40357 25.4823 9.81804 25.4823 10.2738V11.1401C25.4823 11.5604 25.5256 11.9553 25.612 12.3246C25.7024 12.6939 25.8379 13.018 26.0186 13.2969C26.1993 13.5758 26.4292 13.7959 26.7081 13.9569C26.987 14.1141 27.3171 14.1927 27.6981 14.1927C28.1814 14.1927 28.5664 14.116 28.8532 13.9628C29.14 13.8096 29.356 13.5896 29.5014 13.3028C29.6507 13.016 29.7568 12.6722 29.8196 12.2715ZM33.4262 9.62554V15H32.336V8.62372H33.3967L33.4262 9.62554ZM35.418 8.58836L35.4121 9.60197C35.3218 9.58232 35.2353 9.57054 35.1528 9.56661C35.0743 9.55875 34.9839 9.55482 34.8818 9.55482C34.6303 9.55482 34.4084 9.59411 34.2158 9.67268C34.0233 9.75126 33.8603 9.86126 33.7267 10.0027C33.5931 10.1441 33.4871 10.3131 33.4085 10.5095C33.3339 10.702 33.2847 10.9142 33.2612 11.1459L32.9547 11.3227C32.9547 10.9377 32.9921 10.5763 33.0667 10.2384C33.1453 9.90055 33.2651 9.60197 33.4262 9.34267C33.5873 9.07945 33.7915 8.87516 34.0391 8.7298C34.2905 8.5805 34.5891 8.50586 34.9348 8.50586C35.0134 8.50586 35.1037 8.51568 35.2059 8.53532C35.308 8.55104 35.3787 8.56872 35.418 8.58836ZM38.9539 15.1179C38.5099 15.1179 38.1072 15.0432 37.7458 14.8939C37.3883 14.7407 37.0799 14.5266 36.8206 14.2516C36.5652 13.9766 36.3688 13.6505 36.2313 13.2733C36.0938 12.8962 36.025 12.4837 36.025 12.0358V11.7883C36.025 11.2697 36.1016 10.8081 36.2548 10.4034C36.4081 9.99484 36.6163 9.64911 36.8795 9.36624C37.1427 9.08338 37.4413 8.86926 37.7753 8.7239C38.1092 8.57854 38.4549 8.50586 38.8124 8.50586C39.2682 8.50586 39.661 8.58443 39.991 8.74158C40.325 8.89873 40.598 9.11874 40.8102 9.4016C41.0223 9.68054 41.1795 10.0106 41.2816 10.3916C41.3838 10.7688 41.4348 11.1813 41.4348 11.6292V12.1183H36.6733V11.2284H40.3446V11.1459C40.3289 10.8631 40.27 10.5881 40.1678 10.3209C40.0696 10.0538 39.9125 9.83376 39.6964 9.6609C39.4803 9.48803 39.1857 9.4016 38.8124 9.4016C38.5649 9.4016 38.3371 9.45464 38.1288 9.56072C37.9206 9.66286 37.7419 9.81608 37.5926 10.0204C37.4433 10.2247 37.3274 10.4741 37.2449 10.7688C37.1624 11.0634 37.1211 11.4033 37.1211 11.7883V12.0358C37.1211 12.3383 37.1624 12.6231 37.2449 12.8903C37.3313 13.1535 37.4551 13.3853 37.6161 13.5857C37.7811 13.786 37.9795 13.9432 38.2113 14.0571C38.4471 14.171 38.7142 14.228 39.0128 14.228C39.3978 14.228 39.7239 14.1494 39.991 13.9923C40.2582 13.8351 40.4919 13.625 40.6923 13.3617L41.3523 13.8862C41.2148 14.0944 41.04 14.2928 40.8279 14.4814C40.6157 14.67 40.3544 14.8232 40.0441 14.9411C39.7376 15.0589 39.3742 15.1179 38.9539 15.1179ZM46.7268 13.7625V5.94828H47.8229V15H46.8211L46.7268 13.7625ZM42.4367 11.8826V11.7588C42.4367 11.2717 42.4956 10.8297 42.6134 10.4329C42.7352 10.0322 42.9061 9.6884 43.1261 9.4016C43.3501 9.11481 43.6153 8.8948 43.9217 8.74158C44.2321 8.58443 44.5778 8.50586 44.9589 8.50586C45.3596 8.50586 45.7093 8.57658 46.0078 8.71801C46.3104 8.85551 46.5657 9.05784 46.7739 9.32499C46.9861 9.58822 47.1531 9.90644 47.2748 10.2797C47.3966 10.6529 47.4811 11.0752 47.5282 11.5467V12.0888C47.485 12.5563 47.4006 12.9767 47.2748 13.3499C47.1531 13.7232 46.9861 14.0414 46.7739 14.3046C46.5657 14.5678 46.3104 14.7702 46.0078 14.9116C45.7053 15.0491 45.3517 15.1179 44.9471 15.1179C44.5739 15.1179 44.2321 15.0373 43.9217 14.8762C43.6153 14.7152 43.3501 14.4893 43.1261 14.1985C42.9061 13.9078 42.7352 13.566 42.6134 13.1732C42.4956 12.7764 42.4367 12.3462 42.4367 11.8826ZM43.5328 11.7588V11.8826C43.5328 12.2008 43.5642 12.4994 43.627 12.7783C43.6938 13.0573 43.796 13.3028 43.9335 13.515C44.071 13.7271 44.2458 13.8941 44.458 14.0159C44.6701 14.1337 44.9235 14.1927 45.2182 14.1927C45.5796 14.1927 45.8762 14.116 46.108 13.9628C46.3437 13.8096 46.5323 13.6073 46.6738 13.3558C46.8152 13.1044 46.9252 12.8314 47.0038 12.5367V11.1165C46.9566 10.9004 46.8879 10.6922 46.7975 10.4918C46.7111 10.2875 46.5971 10.1068 46.4557 9.94966C46.3182 9.78858 46.1473 9.6609 45.943 9.56661C45.7427 9.47232 45.505 9.42517 45.23 9.42517C44.9314 9.42517 44.674 9.48803 44.458 9.61375C44.2458 9.73554 44.071 9.90448 43.9335 10.1206C43.796 10.3327 43.6938 10.5802 43.627 10.8631C43.5642 11.142 43.5328 11.4406 43.5328 11.7588ZM50.7046 8.62372V15H49.6085V8.62372H50.7046ZM49.526 6.93241C49.526 6.75562 49.579 6.60633 49.6851 6.48454C49.7951 6.36275 49.9562 6.30186 50.1683 6.30186C50.3766 6.30186 50.5357 6.36275 50.6457 6.48454C50.7596 6.60633 50.8166 6.75562 50.8166 6.93241C50.8166 7.10135 50.7596 7.24671 50.6457 7.3685C50.5357 7.48636 50.3766 7.54529 50.1683 7.54529C49.9562 7.54529 49.7951 7.48636 49.6851 7.3685C49.579 7.24671 49.526 7.10135 49.526 6.93241ZM52.4489 5.94828H53.5451V13.7625L53.4508 15H52.4489V5.94828ZM57.8529 11.7588V11.8826C57.8529 12.3462 57.7979 12.7764 57.6879 13.1732C57.5779 13.566 57.4168 13.9078 57.2046 14.1985C56.9925 14.4893 56.7332 14.7152 56.4268 14.8762C56.1203 15.0373 55.7687 15.1179 55.3719 15.1179C54.9672 15.1179 54.6117 15.0491 54.3053 14.9116C54.0027 14.7702 53.7474 14.5678 53.5392 14.3046C53.3309 14.0414 53.164 13.7232 53.0382 13.3499C52.9165 12.9767 52.832 12.5563 52.7848 12.0888V11.5467C52.832 11.0752 52.9165 10.6529 53.0382 10.2797C53.164 9.90644 53.3309 9.58822 53.5392 9.32499C53.7474 9.05784 54.0027 8.85551 54.3053 8.71801C54.6078 8.57658 54.9594 8.50586 55.3601 8.50586C55.7608 8.50586 56.1164 8.58443 56.4268 8.74158C56.7371 8.8948 56.9964 9.11481 57.2046 9.4016C57.4168 9.6884 57.5779 10.0322 57.6879 10.4329C57.7979 10.8297 57.8529 11.2717 57.8529 11.7588ZM56.7568 11.8826V11.7588C56.7568 11.4406 56.7273 11.142 56.6684 10.8631C56.6094 10.5802 56.5151 10.3327 56.3855 10.1206C56.2559 9.90448 56.085 9.73554 55.8728 9.61375C55.6607 9.48803 55.3994 9.42517 55.089 9.42517C54.814 9.42517 54.5744 9.47232 54.3701 9.56661C54.1697 9.6609 53.9988 9.78858 53.8574 9.94966C53.7159 10.1068 53.6001 10.2875 53.5097 10.4918C53.4233 10.6922 53.3584 10.9004 53.3152 11.1165V12.5367C53.3781 12.8117 53.4802 13.0769 53.6217 13.3323C53.767 13.5837 53.9595 13.79 54.1992 13.951C54.4428 14.1121 54.7433 14.1927 55.1008 14.1927C55.3955 14.1927 55.6469 14.1337 55.8551 14.0159C56.0673 13.8941 56.2382 13.7271 56.3678 13.515C56.5014 13.3028 56.5996 13.0573 56.6625 12.7783C56.7253 12.4994 56.7568 12.2008 56.7568 11.8826ZM60.4163 5.94828V15H59.3202V5.94828H60.4163ZM64.8126 15.1179C64.3686 15.1179 63.9659 15.0432 63.6045 14.8939C63.247 14.7407 62.9386 14.5266 62.6793 14.2516C62.4239 13.9766 62.2275 13.6505 62.09 13.2733C61.9525 12.8962 61.8837 12.4837 61.8837 12.0358V11.7883C61.8837 11.2697 61.9603 10.8081 62.1135 10.4034C62.2668 9.99484 62.475 9.64911 62.7382 9.36624C63.0014 9.08338 63.3 8.86926 63.634 8.7239C63.9679 8.57854 64.3136 8.50586 64.6711 8.50586C65.1269 8.50586 65.5197 8.58443 65.8497 8.74158C66.1837 8.89873 66.4567 9.11874 66.6689 9.4016C66.881 9.68054 67.0382 10.0106 67.1403 10.3916C67.2425 10.7688 67.2935 11.1813 67.2935 11.6292V12.1183H62.532V11.2284H66.2033V11.1459C66.1876 10.8631 66.1287 10.5881 66.0265 10.3209C65.9283 10.0538 65.7712 9.83376 65.5551 9.6609C65.339 9.48803 65.0444 9.4016 64.6711 9.4016C64.4236 9.4016 64.1958 9.45464 63.9875 9.56072C63.7793 9.66286 63.6006 9.81608 63.4513 10.0204C63.302 10.2247 63.1861 10.4741 63.1036 10.7688C63.0211 11.0634 62.9798 11.4033 62.9798 11.7883V12.0358C62.9798 12.3383 63.0211 12.6231 63.1036 12.8903C63.19 13.1535 63.3138 13.3853 63.4748 13.5857C63.6398 13.786 63.8382 13.9432 64.07 14.0571C64.3058 14.171 64.5729 14.228 64.8715 14.228C65.2565 14.228 65.5826 14.1494 65.8497 13.9923C66.1169 13.8351 66.3506 13.625 66.551 13.3617L67.211 13.8862C67.0735 14.0944 66.8987 14.2928 66.6866 14.4814C66.4744 14.67 66.2131 14.8232 65.9028 14.9411C65.5963 15.0589 65.2329 15.1179 64.8126 15.1179Z" fill="#6A6A6A"/>
<path d="M12.9311 5.17236L14.9823 8.66963L18.9656 9.52619L16.25 12.5442L16.6606 16.5708L12.9311 14.9388L9.20157 16.5708L9.61212 12.5442L6.8966 9.52619L10.8799 8.66963L12.9311 5.17236Z" fill="#FFCB45"/>
</svg>
