<svg width="24" height="24" viewBox="0 0 24 24" fill="none" xmlns="http://www.w3.org/2000/svg">
<path fill-rule="evenodd" clip-rule="evenodd" d="M2 9.5H7.5V21.5H2V9.5ZM3 10.5V20.5H6.5V10.5H3Z" fill="black"/>
<path fill-rule="evenodd" clip-rule="evenodd" d="M16.1003 4.38449C16.4779 3.37753 15.2174 2.5658 14.4569 3.32626L7.5 10.2832V20.5H16.7086C17.836 20.5 18.8239 19.7455 19.1205 18.6578L20.8286 12.3947C21.0889 11.4405 20.3706 10.5 19.3815 10.5H14.5285C14.3645 10.5 14.2109 10.4196 14.1175 10.2848C14.0241 10.15 14.0028 9.97803 14.0603 9.82448L16.1003 4.38449ZM6.84413 9.52481L13.7498 2.61915C15.2707 1.09825 17.7919 2.72167 17.0367 4.73561L15.25 9.50004H19.3815C21.0299 9.50004 22.2271 11.0675 21.7934 12.6578L20.0853 18.921C19.67 20.4437 18.2869 21.5 16.7086 21.5H7C6.72386 21.5 6.5 21.2762 6.5 21V10C6.5 9.77832 6.64431 9.59031 6.84413 9.52481Z" fill="black"/>
</svg>
