<svg width="24" height="24" viewBox="0 0 24 24" fill="none" xmlns="http://www.w3.org/2000/svg">
<path fill-rule="evenodd" clip-rule="evenodd" d="M12 3C7.02944 3 3 7.02944 3 12C3 16.9706 7.02944 21 12 21C16.9706 21 21 16.9706 21 12C21 7.02944 16.9706 3 12 3ZM2 12C2 6.47715 6.47715 2 12 2C17.5228 2 22 6.47715 22 12C22 17.5228 17.5228 22 12 22C6.47715 22 2 17.5228 2 12Z" fill="black"/>
<path fill-rule="evenodd" clip-rule="evenodd" d="M8 8.25C8 7.69772 8.44772 7.25 9 7.25H16V9.25H10V11H14.75C15.3023 11 15.75 11.4477 15.75 12V15.75C15.75 16.3023 15.3023 16.75 14.75 16.75H8V14.75H13.75V13H9C8.44772 13 8 12.5523 8 12V8.25Z" fill="black"/>
<path fill-rule="evenodd" clip-rule="evenodd" d="M13 5.5V9H11V5.5H13Z" fill="black"/>
<path fill-rule="evenodd" clip-rule="evenodd" d="M13 15V18.5H11V15H13Z" fill="black"/>
</svg>
