<svg width="25" height="25" viewBox="0 0 25 25" fill="none" xmlns="http://www.w3.org/2000/svg">
<path fill-rule="evenodd" clip-rule="evenodd" d="M17.1165 4.75698C16.2798 3.30784 14.4268 2.81132 12.9776 3.64799L5.10589 8.19274C3.65674 9.02941 3.16022 10.8824 3.99689 12.3316C4.43183 13.0849 5.14053 13.5806 5.92615 13.7658C6.12765 13.8133 6.27974 13.979 6.30987 14.1838C6.33999 14.3886 6.24204 14.5911 6.06275 14.6946L4.85342 15.3928C3.40427 16.2295 2.90776 18.0825 3.74442 19.5317C4.58109 20.9808 6.43411 21.4773 7.88326 20.6407L11.8191 18.3683C12.0607 18.2288 12.3695 18.3116 12.5089 18.5531C12.6484 18.7946 12.5656 19.1035 12.3241 19.2429L8.38823 21.5153C6.45603 22.6309 3.98534 21.9688 2.86978 20.0366C1.75423 18.1044 2.41625 15.6337 4.34845 14.5182L4.65035 14.3439C4.03457 14.0006 3.50037 13.4915 3.12225 12.8366C2.0067 10.9044 2.66872 8.43366 4.60092 7.31811L12.4727 2.77335C14.4049 1.65779 16.8756 2.31981 17.9911 4.25201C19.1067 6.18421 18.4446 8.6549 16.5124 9.77046L16.2105 9.94476C16.8263 10.2881 17.3605 10.7972 17.7386 11.4521C17.9848 11.8785 18.1448 12.3322 18.2232 12.7922C18.2701 13.0672 18.0853 13.328 17.8104 13.3749C17.5354 13.4218 17.2746 13.237 17.2277 12.962C17.169 12.6182 17.0494 12.2783 16.864 11.9571C16.4291 11.2037 15.7204 10.7081 14.9347 10.5228C14.7332 10.4753 14.5812 10.3096 14.551 10.1048C14.5209 9.9 14.6189 9.69754 14.7981 9.59403L16.0075 8.89582C17.4566 8.05915 17.9531 6.20613 17.1165 4.75698Z" fill="black"/>
<path d="M13.6343 12.1195L9.08952 14.7434L9.08952 9.49561L13.6343 12.1195Z" fill="black"/>
<path d="M15.1492 18.1792H22.2188V19.1891H15.1492V18.1792Z" fill="black"/>
<path d="M19.189 15.1494L19.189 22.219L18.179 22.219L18.179 15.1494L19.189 15.1494Z" fill="black"/>
</svg>
